<?xml version="1.0" encoding="utf-8"?>
<!-- Generator: Adobe Illustrator 24.2.3, SVG Export Plug-In . SVG Version: 6.00 Build 0)  -->
<svg version="1.1" id="Layer_1" xmlns="http://www.w3.org/2000/svg" xmlns:xlink="http://www.w3.org/1999/xlink" x="0px" y="0px"
	 viewBox="0 0 75 75" style="enable-background:new 0 0 75 75;" xml:space="preserve">
<style type="text/css">
	.st0{fill:#474747;}
</style>
<g>
	<path class="st0" d="M112.1,55.5H93.9v20H82.6V-0.3h29.5c14.8,0.1,26.7,12.5,26.7,27.9C138.8,43,126.9,55.4,112.1,55.5z
		 M127.6,27.6c0-10.2-7-18.6-15.7-18.6h-18v37.2h18C120.6,46.2,127.6,37.8,127.6,27.6z"/>
</g>
<path class="st0" d="M165.6,0.5c0.5,0,1,0,1.6,0.5c1,0.5,1,1,1,1.6v25.3c0,1,0,2.6-0.5,3.6c-0.5,1-1.6,2.1-2.1,3.1
	c-1,1-2.1,1.6-3.1,2.1c-1,0.5-2.6,0.5-3.6,0.5v34.6c0,0.5,0,1-0.5,1.6c-0.5,0.5-1.6,1-2.1,1c-0.5,0-1,0-1.6-0.5
	c-0.5-0.5-0.5-1-0.5-1.6V37.7c-1.6,0-2.6,0-3.6-0.5c-1.6-1-2.1-1.6-3.1-2.6s-1.6-2.1-2.1-3.1c-0.5-1-0.5-2.1-1-3.6V2.6
	c0-0.5,0-1,0.5-1.6c0.5-0.5,1-0.5,1.6-0.5c0.5,0,1,0,1.6,0.5c0.5,0.5,0.5,1,0.5,1.6v25.3c0,0.5,0,1,0.5,2.1c0,0.5,0.5,1,1,1.6
	c0.5,0.5,1,0.5,1.6,1c0.5,0.5,1,0.5,2.1,0.5v-30c0-0.5,0-1,0.5-1.6c0.5-0.5,1-0.5,1.6-0.5c0.5,0,1,0,1.6,0.5c0.5,0.5,0.5,1,0.5,1.6
	v30c0.5,0,1,0,2.1-0.5c0.5,0,1-0.5,1.6-1c1-0.5,1.6-1,1.6-1.6c0.5-0.5,0.5-1,0.5-2.1V2.6c0-0.5,0-1,0.5-1.6
	C164.5,0.5,165.1,0.5,165.6,0.5z M191.9,0.5v71.8c0,0.5,0,1-0.5,1.6c-0.5,0.5-1,0.5-1.6,0.5c-0.5,0-1,0-1.6-0.5s-0.5-1-0.5-1.6V51.7
	c-1,0-2.1,0-3.1,0c-1,0-2.1,0-3.1,0c-1,0-2.1,0-3.1-0.5c-1.6-0.5-2.6-1-3.1-1.6c-1-0.5-1.6-1-2.1-2.1c-0.5-0.5-0.5-1.6-0.5-3.1V16.5
	c0-2.1,0.5-4.1,1-6.2c1-2.1,2.1-3.6,3.6-5.2c1.6-1.6,3.1-2.6,5.2-3.6c2.1-1,4.1-1,6.2-1.6h3.1V0.5z M186.8,5.2
	c-1.6,0.5-2.6,0.5-3.6,1.6c-1,0.5-2.1,1.6-3.1,2.6c-1,1-1.6,2.1-2.1,3.6c-0.5,1-0.5,2.6-0.5,4.1V45c0,0.5,0,1,0.5,1.6
	c0.5,0.5,1,0.5,1.6,0.5h7.2V5.2z"/>
<path class="st0" d="M71.8,22.2L39-0.7c-0.6-0.6-1.2-0.6-1.9,0L3.8,22.2c-1.2,1.2-0.6,3.1,1.2,3.1h29.1v49.5h7.4V25.3h29.1
	C72.4,25.3,73.1,23.4,71.8,22.2z M36.6,8.6c0.6-0.6,1.2-0.6,1.9,0l13,9.3H23.6L36.6,8.6z"/>
<path class="st0" d="M7.5,37l-7.4,1.2l3.1,16.1V55v19.8h7.4V59.3H18v15.5h7.4V56.8c0-2.5-1.9-4.9-4.9-4.9h-5.6
	c-2.5,0-4.3-1.9-4.9-3.7L7.5,37z"/>
<path class="st0" d="M60.7,51.9h-5.6c-3.1,0-5.6,2.5-5.6,5.6v17.3H57V59.3h7.4v15.5h7.4V55c0-0.6,0-0.6,0-1.2l3.1-16.1l-7.4-1.2
	l-1.9,11.1C65,50,63.2,51.9,60.7,51.9z"/>
</svg>
