<?xml version="1.0" encoding="utf-8"?>
<!-- Generator: Adobe Illustrator 24.2.3, SVG Export Plug-In . SVG Version: 6.00 Build 0)  -->
<svg version="1.1" id="Layer_1" xmlns="http://www.w3.org/2000/svg" xmlns:xlink="http://www.w3.org/1999/xlink" x="0px" y="0px"
	 viewBox="0 0 122.9 94.6" style="enable-background:new 0 0 122.9 94.6;" xml:space="preserve">
<style type="text/css">
	.st0{fill-rule:evenodd;clip-rule:evenodd;fill:#474747;}
</style>
<path class="st0" d="M0,29.9L28.9,9.4L58,29.9H0L0,29.9z M25.7,76.1l18.5-4.7l-3.5,5.8c6.4,5.9,13.1,7.6,20.8,4.7
	c-7.6,10.9-18.6,11.8-27.7,6.8l-3.5,5.9L25.7,76.1L25.7,76.1L25.7,76.1L25.7,76.1z M64.9,47.1l28.9-20.5l29.1,20.5H64.9L64.9,47.1z
	 M66.7,80.6v-6.7h2l1.9-1.5V54.5h-3.9v-4.3H121v4.3h-3.9v17.9l1.9,1.5h2v6.7H66.7L66.7,80.6z M79.6,73.9h2.2l1.9-1.5V54.5h-6v17.9
	L79.6,73.9L79.6,73.9L79.6,73.9z M92.7,73.9h2.2l1.9-1.5V54.5h-6v17.9L92.7,73.9L92.7,73.9L92.7,73.9z M105.8,73.9h2.2l1.9-1.5V54.5
	h-6v17.9L105.8,73.9L105.8,73.9L105.8,73.9z M86,18.7l-18.7,3.8l3.8-5.6c-6.1-6.2-12.7-8.3-20.5-5.7c8.1-10.5,19.2-10.8,28-5.4
	L82.3,0L86,18.7L86,18.7L86,18.7L86,18.7z M1.8,63.5v-6.7h2l1.9-1.5V37.4H1.8v-4.3h54.3v4.3h-3.9v17.9l1.9,1.5h2v6.7L1.8,63.5
	L1.8,63.5z M14.7,56.7h2.2l1.9-1.5V37.4h-6v17.9L14.7,56.7L14.7,56.7L14.7,56.7z M27.8,56.7H30l1.9-1.5V37.4h-6v17.9L27.8,56.7
	L27.8,56.7L27.8,56.7z M41,56.7h2.2l1.9-1.5V37.4h-6v17.9L41,56.7L41,56.7L41,56.7z"/>
</svg>
