<svg width="75" height="75" viewBox="0 0 75 75" fill="none" xmlns="http://www.w3.org/2000/svg">
<g clip-path="url(#clip0)">
<path d="M51.7323 36.6357C51.6799 35.7901 51.0057 35.1159 50.1601 35.0633C50.1219 35.0608 49.9142 35.049 49.5708 35.049C49.484 35.049 49.3894 35.0501 49.2908 35.0517C51.9045 31.4527 51.7659 26.6404 51.7358 26.016V15.1461C51.7358 14.2185 50.9839 13.4667 50.0564 13.4667C49.1288 13.4667 48.377 14.2185 48.377 15.1461V24.4099C47.0179 24.5037 45.1423 24.7875 43.303 25.567C43.6835 24.4449 43.9253 23.23 43.9253 21.954C43.9253 17.1882 40.5555 13.2767 39.1797 11.8784V1.6794C39.1797 0.751835 38.4279 0 37.5003 0C36.5728 0 35.8209 0.751835 35.8209 1.6794V11.8781C34.4452 13.2764 31.0753 17.188 31.0753 21.9537C31.0753 23.2298 31.3172 24.4449 31.6977 25.5667C29.8584 24.7875 27.9828 24.5034 26.6237 24.4097V15.1461C26.6237 14.2185 25.8719 13.4667 24.9443 13.4667C24.0167 13.4667 23.2649 14.2185 23.2649 15.1461V26.016C23.2345 26.6404 23.0962 31.4529 25.7099 35.0517C25.6112 35.0501 25.5167 35.049 25.4299 35.049C25.0862 35.049 24.8785 35.0608 24.8406 35.0633C23.995 35.1157 23.3208 35.7898 23.2684 36.6357C23.2536 36.873 22.9761 41.9695 25.7101 45.7343C25.6115 45.7327 25.5169 45.7316 25.4299 45.7316C25.0862 45.7316 24.8785 45.7435 24.8403 45.7459C23.9947 45.7983 23.3205 46.4724 23.2681 47.3183C23.2517 47.5809 22.9129 53.7909 26.6871 57.5651C29.5287 60.4067 33.7041 60.9236 35.8209 60.99V73.3209C35.8209 74.2484 36.5728 75.0003 37.5003 75.0003C38.4279 75.0003 39.1797 74.2484 39.1797 73.3209V60.99C41.2969 60.9236 45.4717 60.4067 48.3135 57.5651C52.0878 53.7909 51.7489 47.5809 51.7325 47.3183C51.6801 46.4724 51.006 45.7985 50.1604 45.7459C50.1222 45.7435 49.9145 45.7316 49.5708 45.7316C49.484 45.7316 49.3892 45.7327 49.2908 45.7343C52.0246 41.9692 51.7471 36.873 51.7323 36.6357ZM35.1024 46.8994C33.43 46.7495 30.7851 46.2314 29.0619 44.5082C27.3412 42.7872 26.8215 40.1547 26.671 38.4664C28.3434 38.6163 30.9877 39.1347 32.7115 40.8581C34.4323 42.5789 34.9519 45.2114 35.1024 46.8994ZM42.2884 40.8581C44.0105 39.1363 46.6521 38.6171 48.3246 38.4667C48.1706 40.1592 47.6477 42.7982 45.9385 44.5079C44.2147 46.2314 41.5699 46.7497 39.8975 46.8994C40.0479 45.2101 40.5681 42.5786 42.2884 40.8581ZM45.9382 33.8253C44.2158 35.5472 41.5742 36.0663 39.9015 36.2165C40.0557 34.524 40.5786 31.885 42.2881 30.1758C44.0105 28.4539 46.6519 27.9351 48.3243 27.7849C48.1706 29.4769 47.6477 32.1158 45.9382 33.8253ZM37.4966 15.0209C38.7345 16.4697 40.5663 19.0966 40.5663 21.9537C40.5663 24.8318 38.7385 27.4479 37.5001 28.8903C36.2616 27.4479 34.4339 24.8318 34.4339 21.9537C34.4339 19.0775 36.2587 16.4633 37.4966 15.0209ZM32.7115 30.1755C34.432 31.8963 34.9519 34.5288 35.1021 36.2168C33.4297 36.0669 30.7849 35.5488 29.0617 33.8253C27.3409 32.1051 26.8212 29.4726 26.671 27.7846C28.3432 27.9343 30.988 28.4523 32.7115 30.1755ZM29.0617 55.1903C27.3412 53.4695 26.8212 50.837 26.671 49.149C28.3432 49.2989 30.9877 49.817 32.7115 51.5402C34.432 53.261 34.9519 55.8935 35.1021 57.5815C33.43 57.4316 30.7851 56.9135 29.0617 55.1903ZM45.9382 55.19C44.2158 56.9119 41.5742 57.431 39.9015 57.5812C40.0557 55.8887 40.5786 53.2497 42.2881 51.5405C44.0119 49.817 46.6564 49.2987 48.3286 49.149C48.1784 50.8378 47.6584 53.4695 45.9382 55.19Z" fill="#80C825"/>
</g>
<defs>
<clipPath id="clip0">
<rect width="75" height="75" fill="white"/>
</clipPath>
</defs>
</svg>
