<?xml version="1.0" encoding="utf-8"?>
<!-- Generator: Adobe Illustrator 24.2.3, SVG Export Plug-In . SVG Version: 6.00 Build 0)  -->
<svg version="1.1" id="Layer_1" xmlns="http://www.w3.org/2000/svg" xmlns:xlink="http://www.w3.org/1999/xlink" x="0px" y="0px"
	 viewBox="0 0 1623.2 1539.8" style="enable-background:new 0 0 1623.2 1539.8;" xml:space="preserve">
<style type="text/css">
	.st0{fill:none;stroke:#CEBCC7;stroke-miterlimit:10;}
	.st1{fill:#F8F7F8;}
	.st2{fill:#FCF0F5;}
	.st3{fill:#FDEBF3;}
	.st4{fill:#F7DFEC;}
	.st5{fill:none;stroke:#C1AEC1;stroke-miterlimit:10;}
	.st6{fill:none;stroke:#A09DB9;stroke-miterlimit:10;}
	.st7{fill:none;stroke:#F7B0C7;stroke-miterlimit:10;}
	.st8{fill:none;stroke:#9AC8E2;stroke-miterlimit:10;}
	.st9{fill:none;stroke:#F0CD9B;stroke-miterlimit:10;}
	.st10{fill:#B47D92;}
	.st11{font-family:'Quicksand-Medium';}
	.st12{font-size:29.4678px;}
	.st13{fill:#C5A7C6;}
	.st14{fill:#7E7996;}
	.st15{fill:#F27D9F;}
	.st16{fill:#95AEBB;}
	.st17{fill:#D1AF7D;}
	.st18{fill:none;}
</style>
<rect x="44.9" y="651.3" class="st0" width="226.5" height="226.5"/>
<rect x="44.9" y="401.1" class="st0" width="226.5" height="226.5"/>
<rect x="44.9" y="901.5" class="st0" width="226.5" height="226.5"/>
<rect x="44.9" y="1151.6" class="st0" width="226.5" height="226.5"/>
<rect x="299" y="1151.6" class="st1" width="226.5" height="226.5"/>
<rect x="553.1" y="1151.6" class="st1" width="226.5" height="226.5"/>
<rect x="807.2" y="1151.6" class="st1" width="226.5" height="226.5"/>
<rect x="1061.3" y="1151.6" class="st1" width="226.5" height="226.5"/>
<rect x="1315.4" y="1151.6" class="st1" width="226.5" height="226.5"/>
<rect x="299" y="901.5" class="st2" width="226.5" height="226.5"/>
<rect x="553.1" y="901.5" class="st2" width="226.5" height="226.5"/>
<rect x="807.2" y="901.5" class="st2" width="226.5" height="226.5"/>
<rect x="1061.3" y="901.5" class="st2" width="226.5" height="226.5"/>
<rect x="1315.4" y="901.5" class="st2" width="226.5" height="226.5"/>
<rect x="299" y="651.3" class="st3" width="226.5" height="226.5"/>
<rect x="553.1" y="651.3" class="st3" width="226.5" height="226.5"/>
<rect x="807.2" y="651.3" class="st3" width="226.5" height="226.5"/>
<rect x="1061.3" y="651.3" class="st3" width="226.5" height="226.5"/>
<rect x="1315.4" y="651.3" class="st3" width="226.5" height="226.5"/>
<rect x="299" y="401.1" class="st4" width="226.5" height="226.5"/>
<rect x="553.1" y="401.1" class="st4" width="226.5" height="226.5"/>
<rect x="807.2" y="401.1" class="st4" width="226.5" height="226.5"/>
<rect x="1061.3" y="401.1" class="st4" width="226.5" height="226.5"/>
<rect x="1315.4" y="401.1" class="st4" width="226.5" height="226.5"/>
<rect x="299" y="151" class="st5" width="226.5" height="226.5"/>
<rect x="553.1" y="151" class="st6" width="226.5" height="226.5"/>
<rect x="807.2" y="151" class="st7" width="226.5" height="226.5"/>
<rect x="1061.3" y="151" class="st8" width="226.5" height="226.5"/>
<rect x="1315.4" y="151" class="st9" width="226.5" height="226.5"/>
<text transform="matrix(1 0 0 1 85.5436 506.8098)"><tspan x="0" y="0" class="st10 st11 st12">9 lipca </tspan><tspan x="0" y="35.4" class="st10 st11 st12">- 19 sierpnia</tspan></text>
<text transform="matrix(1 0 0 1 372.8415 527.1995)" class="st10 st11 st12">170pln</text>
<text transform="matrix(1 0 0 1 372.8415 773.72)" class="st10 st11 st12">140pln</text>
<text transform="matrix(1 0 0 1 372.8415 1020.2405)" class="st10 st11 st12">100pln</text>
<text transform="matrix(1 0 0 1 372.8415 1277.8831)" class="st10 st11 st12">80pln</text>
<text transform="matrix(1 0 0 1 623.069 527.1995)" class="st10 st11 st12">170pln</text>
<text transform="matrix(1 0 0 1 623.069 773.72)" class="st10 st11 st12">140pln</text>
<text transform="matrix(1 0 0 1 623.069 1020.2405)" class="st10 st11 st12">100pln</text>
<text transform="matrix(1 0 0 1 623.069 1277.8831)" class="st10 st11 st12">80pln</text>
<text transform="matrix(1 0 0 1 878.8571 527.1995)" class="st10 st11 st12">250pln</text>
<text transform="matrix(1 0 0 1 878.8571 773.72)" class="st10 st11 st12">200pln</text>
<text transform="matrix(1 0 0 1 878.8571 1020.2405)" class="st10 st11 st12">150pln</text>
<text transform="matrix(1 0 0 1 878.8571 1277.8831)" class="st10 st11 st12">110pln</text>
<text transform="matrix(1 0 0 1 1130.9391 527.1995)" class="st10 st11 st12">250pln</text>
<text transform="matrix(1 0 0 1 1130.9391 773.72)" class="st10 st11 st12">200pln</text>
<text transform="matrix(1 0 0 1 1130.9391 1020.2405)" class="st10 st11 st12">150pln</text>
<text transform="matrix(1 0 0 1 1130.9391 1277.8831)" class="st10 st11 st12">110pln</text>
<text transform="matrix(1 0 0 1 1379.3131 527.1995)" class="st10 st11 st12">300pln</text>
<text transform="matrix(1 0 0 1 1379.3131 773.72)" class="st10 st11 st12">250pln</text>
<text transform="matrix(1 0 0 1 1379.3131 1020.2405)" class="st10 st11 st12">200pln</text>
<text transform="matrix(1 0 0 1 1379.3131 1277.8831)" class="st10 st11 st12">160pln</text>
<g>
	<text transform="matrix(1 0 0 1 365.1999 243.0345)"><tspan x="0" y="0" class="st13 st11 st12">Liliowa</tspan><tspan x="12.2" y="35.4" class="st13 st11 st12">róża </tspan><tspan x="19" y="70.7" class="st13 st11 st12">2 os</tspan></text>
</g>
<g>
	<text transform="matrix(1 0 0 1 599.6901 243.0345)"><tspan x="0" y="0" class="st14 st11 st12">Fioletowa</tspan><tspan x="31.8" y="35.4" class="st14 st11 st12">róża </tspan><tspan x="38.6" y="70.7" class="st14 st11 st12">2 os</tspan></text>
</g>
<text transform="matrix(1 0 0 1 852.0675 244.7679)"><tspan x="0" y="0" class="st15 st11 st12">Czerwona</tspan><tspan x="33.5" y="35.4" class="st15 st11 st12">róża </tspan><tspan x="40.8" y="70.7" class="st15 st11 st12">3 os</tspan></text>
<g>
	<text transform="matrix(1 0 0 1 1098.6842 243.0345)"><tspan x="0" y="0" class="st16 st11 st12">Turkusowa</tspan><tspan x="41" y="35.4" class="st16 st11 st12">róża </tspan><tspan x="48.3" y="70.7" class="st16 st11 st12">3 os</tspan></text>
</g>
<g>
	<text transform="matrix(1 0 0 1 1345.2555 243.0345)"><tspan x="0" y="0" class="st17 st11 st12">Apartament</tspan><tspan x="8.6" y="35.4" class="st17 st11 st12">Waniliowa </tspan><tspan x="7.9" y="70.7" class="st17 st11 st12">róża 2+2os</tspan></text>
</g>
<text transform="matrix(1 0 0 1 85.5436 756.2864)"><tspan x="0" y="0" class="st10 st11 st12">24 czerwca</tspan><tspan x="0" y="35.4" class="st10 st11 st12">- 8 lipca</tspan></text>
<g>
	<rect x="85.5" y="965.6" class="st18" width="140.4" height="137.4"/>
	<text transform="matrix(1 0 0 1 85.5436 990.6888)"><tspan x="0" y="0" class="st10 st11 st12">czerwiec,</tspan><tspan x="0" y="35.4" class="st10 st11 st12">wrzesień,</tspan><tspan x="0" y="70.7" class="st10 st11 st12">Boże </tspan><tspan x="0" y="106.1" class="st10 st11 st12">ciało</tspan></text>
</g>
<g>
	<text transform="matrix(1 0 0 1 87.276 1260.5891)"><tspan x="0" y="0" class="st10 st11 st12">pozostałe</tspan><tspan x="0" y="35.4" class="st10 st11 st12">dni roku</tspan></text>
</g>
</svg>
