<?xml version="1.0" encoding="utf-8"?>
<!-- Generator: Adobe Illustrator 24.2.3, SVG Export Plug-In . SVG Version: 6.00 Build 0)  -->
<svg version="1.1" id="Layer_1" xmlns="http://www.w3.org/2000/svg" xmlns:xlink="http://www.w3.org/1999/xlink" x="0px" y="0px"
	 viewBox="0 0 7 7.5" style="enable-background:new 0 0 7 7.5;" xml:space="preserve">
<style type="text/css">
	.st0{fill-rule:evenodd;clip-rule:evenodd;fill:#474747;}
	.st1{fill:#474747;}
</style>
<path class="st0" d="M6-29.6c0-1.1,0.4-2.1,1.2-2.8c0.8-0.8,1.8-1.2,2.8-1.2h12c1.1,0,2.1,0.4,2.8,1.2c0.8,0.8,1.2,1.8,1.2,2.8v24
	c0,1.1-0.4,2.1-1.2,2.8C24.1-2,23.1-1.6,22-1.6H10C8.9-1.6,7.9-2,7.2-2.7C6.4-3.5,6-4.5,6-5.6V-29.6z M18-7.6c0,0.5-0.2,1-0.6,1.4
	C17-5.8,16.5-5.6,16-5.6c-0.5,0-1-0.2-1.4-0.6C14.2-6.5,14-7,14-7.6s0.2-1,0.6-1.4C15-9.4,15.5-9.6,16-9.6c0.5,0,1,0.2,1.4,0.6
	C17.8-8.6,18-8.1,18-7.6z"/>
<path class="st1" d="M-9.4-6.3v62.7h-53.2V-5.8l43.2-13.8v12.8h10V-6.3z M-23.7-12.5l-20.4,6.2h20.4V-12.5z M-14.2-1.6h-43.2v53.2
	h43.2V-1.6L-14.2-1.6z M-35.6,13.2c1-1,1.9-1.4,3.3-1.9c1-0.5,2.4-0.5,3.8-0.5c1.4,0,2.9,0.5,3.8,1c1.4,0.5,2.4,1.4,3.3,2.4
	c1,1,1.4,1.9,2.4,3.3c0.5,1.4,1,2.4,1,3.8c0,1.4-0.5,2.4-1,3.8c-0.5,1.4-1.4,2.4-2.4,3.3l-13.8,13.8l-13.8-13.8
	c-1-1-1.9-1.9-2.4-3.3s-1-2.4-1-3.8c0-1.4,0.5-2.9,1-3.8c0.5-1.4,1.4-2.4,2.4-3.3s1.9-1.4,3.3-2.4c1.4-0.5,2.4-1,3.8-1
	s2.4,0,3.8,0.5C-37.9,11.7-36.5,12.7-35.6,13.2z M-25.1,24.6c1-1,1.4-2.4,1.4-3.8c0-1,0-1.4-0.5-1.9c-0.5-0.5-0.5-1.4-1-1.9
	c-0.5-0.5-1-1-1.4-1c-0.5-0.5-1.4-0.5-1.9-0.5c-1.4,0-2.9,0.5-3.8,1.4l-3.3,2.9l-3.3-3.3c-1-1-2.4-1.4-3.8-1.4c-1,0-1.4,0-1.9,0.5
	c-0.5,0.5-1.4,0.5-1.9,1c-0.5,0.5-1,1-1,1.4c-0.5,0.5-0.5,1.4-0.5,1.9c0,1.4,0.5,2.9,1.4,3.8L-36,34.1L-25.1,24.6z"/>
<g>
	<g>
		<path class="st1" d="M3.2,2c0.5,0,1,0.2,1.3,0.6v0c0-0.2,0.1-0.3,0.3-0.3h0c0.2,0,0.3,0.2,0.3,0.3l0,2.6c0,0.2,0.2,0.3,0.3,0.2
			c0.4-0.4,0.9-2.2-0.3-3.3c-1.1-1-2.6-0.8-3.4-0.3C1,2.4,0.4,3.7,1,4.9c0.6,1.3,2.2,1.7,3.2,1.3C4.6,6,4.9,6.7,4.4,6.9
			C3.6,7.2,1.4,7.2,0.4,5.5c-0.7-1.2-0.6-3.3,1.2-4.3C3,0.3,4.8,0.5,5.9,1.7C7,2.9,7,5.1,5.8,6C5.3,6.4,4.6,6,4.6,5.4l0-0.2
			C4.2,5.6,3.7,5.8,3.2,5.8c-1,0-1.9-0.9-1.9-1.9C1.3,2.9,2.2,2,3.2,2L3.2,2z M4.5,3.8c0-0.7-0.6-1.2-1.3-1.2h0C2.5,2.6,2,3.3,2,3.9
			c0,0.8,0.5,1.3,1.2,1.3C4,5.2,4.5,4.6,4.5,4L4.5,3.8z"/>
	</g>
</g>
</svg>
