<?xml version="1.0" encoding="utf-8"?>
<!-- Generator: Adobe Illustrator 24.2.3, SVG Export Plug-In . SVG Version: 6.00 Build 0)  -->
<svg version="1.1" id="Layer_1" xmlns="http://www.w3.org/2000/svg" xmlns:xlink="http://www.w3.org/1999/xlink" x="0px" y="0px"
	 viewBox="0 0 75 75" style="enable-background:new 0 0 75 75;" xml:space="preserve">
<style type="text/css">
	.st0{fill:#474747;}
</style>
<g>
	<path class="st0" d="M112.1,55.5H93.9v20H82.6V-0.3h29.5c14.8,0.1,26.7,12.5,26.7,27.9C138.8,43,126.9,55.4,112.1,55.5z
		 M127.6,27.6c0-10.2-7-18.6-15.7-18.6h-18v37.2h18C120.6,46.2,127.6,37.8,127.6,27.6z"/>
</g>
<path class="st0" d="M32.5,0.5c0.5,0,1,0,1.6,0.5c1,0.5,1,1,1,1.6v25.3c0,1,0,2.6-0.5,3.6c-0.5,1-1.6,2.1-2.1,3.1
	c-1,1-2.1,1.6-3.1,2.1c-1,0.5-2.6,0.5-3.6,0.5v34.6c0,0.5,0,1-0.5,1.6c-0.5,0.5-1.6,1-2.1,1s-1,0-1.6-0.5s-0.5-1-0.5-1.6V37.7
	c-1.6,0-2.6,0-3.6-0.5c-1.6-1-2.1-1.6-3.1-2.6s-1.6-2.1-2.1-3.1c-0.5-1-0.5-2.1-1-3.6V2.6c0-0.5,0-1,0.5-1.6c0.5-0.5,1-0.5,1.6-0.5
	s1,0,1.6,0.5c0.5,0.5,0.5,1,0.5,1.6v25.3c0,0.5,0,1,0.5,2.1c0,0.5,0.5,1,1,1.6c0.5,0.5,1,0.5,1.6,1c0.5,0.5,1,0.5,2.1,0.5v-30
	c0-0.5,0-1,0.5-1.6C21.6,1,22.1,1,22.6,1c0.5,0,1,0,1.6,0.5c0.5,0.5,0.5,1,0.5,1.6v30c0.5,0,1,0,2.1-0.5c0.5,0,1-0.5,1.6-1
	c1-0.5,1.6-1,1.6-1.6c0.5-0.5,0.5-1,0.5-2.1V2.6c0-0.5,0-1,0.5-1.6C31.4,0.5,31.9,0.5,32.5,0.5z M58.8,0.5v71.8c0,0.5,0,1-0.5,1.6
	c-0.5,0.5-1,0.5-1.6,0.5c-0.5,0-1,0-1.6-0.5c-0.5-0.5-0.5-1-0.5-1.6V51.7c-1,0-2.1,0-3.1,0c-1,0-2.1,0-3.1,0c-1,0-2.1,0-3.1-0.5
	c-1.6-0.5-2.6-1-3.1-1.6c-1-0.5-1.6-1-2.1-2.1c-0.5-0.5-0.5-1.6-0.5-3.1V16.5c0-2.1,0.5-4.1,1-6.2c1-2.1,2.1-3.6,3.6-5.2
	s3.1-2.6,5.2-3.6c2.1-1,4.1-1,6.2-1.6h3.1V0.5z M53.6,5.2c-1.6,0.5-2.6,0.5-3.6,1.6c-1,0.5-2.1,1.6-3.1,2.6c-1,1-1.6,2.1-2.1,3.6
	c-0.5,1-0.5,2.6-0.5,4.1V45c0,0.5,0,1,0.5,1.6c0.5,0.5,1,0.5,1.6,0.5h7.2V5.2z"/>
</svg>
