<?xml version="1.0" encoding="utf-8"?>
<!-- Generator: Adobe Illustrator 24.2.3, SVG Export Plug-In . SVG Version: 6.00 Build 0)  -->
<svg version="1.1" id="Layer_1" xmlns="http://www.w3.org/2000/svg" xmlns:xlink="http://www.w3.org/1999/xlink" x="0px" y="0px"
	 viewBox="0 0 32 32" style="enable-background:new 0 0 32 32;" xml:space="preserve">
<style type="text/css">
	.st0{fill-rule:evenodd;clip-rule:evenodd;fill:#474747;}
	.st1{fill:#474747;}
</style>
<path class="st0" d="M6,4c0-1.1,0.4-2.1,1.2-2.8C7.9,0.4,8.9,0,10,0h12c1.1,0,2.1,0.4,2.8,1.2C25.6,1.9,26,2.9,26,4v24
	c0,1.1-0.4,2.1-1.2,2.8C24.1,31.6,23.1,32,22,32H10c-1.1,0-2.1-0.4-2.8-1.2C6.4,30.1,6,29.1,6,28V4z M18,26c0,0.5-0.2,1-0.6,1.4
	C17,27.8,16.5,28,16,28c-0.5,0-1-0.2-1.4-0.6C14.2,27,14,26.5,14,26s0.2-1,0.6-1.4C15,24.2,15.5,24,16,24c0.5,0,1,0.2,1.4,0.6
	C17.8,25,18,25.5,18,26z"/>
<path class="st1" d="M-9.4-6.3v62.7h-53.2V-5.8l43.2-13.8v12.8h10V-6.3z M-23.7-12.5l-20.4,6.2h20.4V-12.5z M-14.2-1.6h-43.2v53.2
	h43.2V-1.6L-14.2-1.6z M-35.6,13.2c1-1,1.9-1.4,3.3-1.9c1-0.5,2.4-0.5,3.8-0.5c1.4,0,2.9,0.5,3.8,1c1.4,0.5,2.4,1.4,3.3,2.4
	c1,1,1.4,1.9,2.4,3.3c0.5,1.4,1,2.4,1,3.8c0,1.4-0.5,2.4-1,3.8c-0.5,1.4-1.4,2.4-2.4,3.3l-13.8,13.8l-13.8-13.8
	c-1-1-1.9-1.9-2.4-3.3s-1-2.4-1-3.8c0-1.4,0.5-2.9,1-3.8c0.5-1.4,1.4-2.4,2.4-3.3s1.9-1.4,3.3-2.4c1.4-0.5,2.4-1,3.8-1
	s2.4,0,3.8,0.5C-37.9,11.7-36.5,12.7-35.6,13.2z M-25.1,24.6c1-1,1.4-2.4,1.4-3.8c0-1,0-1.4-0.5-1.9c-0.5-0.5-0.5-1.4-1-1.9
	c-0.5-0.5-1-1-1.4-1c-0.5-0.5-1.4-0.5-1.9-0.5c-1.4,0-2.9,0.5-3.8,1.4l-3.3,2.9l-3.3-3.3c-1-1-2.4-1.4-3.8-1.4c-1,0-1.4,0-1.9,0.5
	c-0.5,0.5-1.4,0.5-1.9,1c-0.5,0.5-1,1-1,1.4c-0.5,0.5-0.5,1.4-0.5,1.9c0,1.4,0.5,2.9,1.4,3.8L-36,34.1L-25.1,24.6z"/>
</svg>
