<?xml version="1.0" encoding="utf-8"?>
<!-- Generator: Adobe Illustrator 24.2.3, SVG Export Plug-In . SVG Version: 6.00 Build 0)  -->
<svg version="1.1" id="Layer_1" xmlns="http://www.w3.org/2000/svg" xmlns:xlink="http://www.w3.org/1999/xlink" x="0px" y="0px"
	 viewBox="0 0 75 75" style="enable-background:new 0 0 75 75;" xml:space="preserve">
<style type="text/css">
	.st0{fill:#474747;}
</style>
<g>
	<path class="st0" d="M112.1,55.5H93.9v20H82.6V-0.3h29.5c14.8,0.1,26.7,12.5,26.7,27.9C138.8,43,126.9,55.4,112.1,55.5z
		 M127.6,27.6c0-10.2-7-18.6-15.7-18.6h-18v37.2h18C120.6,46.2,127.6,37.8,127.6,27.6z"/>
</g>
<path class="st0" d="M165.6,0.5c0.5,0,1,0,1.6,0.5c1,0.5,1,1,1,1.6v25.3c0,1,0,2.6-0.5,3.6c-0.5,1-1.6,2.1-2.1,3.1
	c-1,1-2.1,1.6-3.1,2.1c-1,0.5-2.6,0.5-3.6,0.5v34.6c0,0.5,0,1-0.5,1.6c-0.5,0.5-1.6,1-2.1,1c-0.5,0-1,0-1.6-0.5
	c-0.5-0.5-0.5-1-0.5-1.6V37.7c-1.6,0-2.6,0-3.6-0.5c-1.6-1-2.1-1.6-3.1-2.6s-1.6-2.1-2.1-3.1c-0.5-1-0.5-2.1-1-3.6V2.6
	c0-0.5,0-1,0.5-1.6c0.5-0.5,1-0.5,1.6-0.5c0.5,0,1,0,1.6,0.5c0.5,0.5,0.5,1,0.5,1.6v25.3c0,0.5,0,1,0.5,2.1c0,0.5,0.5,1,1,1.6
	c0.5,0.5,1,0.5,1.6,1c0.5,0.5,1,0.5,2.1,0.5v-30c0-0.5,0-1,0.5-1.6c0.5-0.5,1-0.5,1.6-0.5c0.5,0,1,0,1.6,0.5c0.5,0.5,0.5,1,0.5,1.6
	v30c0.5,0,1,0,2.1-0.5c0.5,0,1-0.5,1.6-1c1-0.5,1.6-1,1.6-1.6c0.5-0.5,0.5-1,0.5-2.1V2.6c0-0.5,0-1,0.5-1.6
	C164.5,0.5,165.1,0.5,165.6,0.5z M191.9,0.5v71.8c0,0.5,0,1-0.5,1.6c-0.5,0.5-1,0.5-1.6,0.5c-0.5,0-1,0-1.6-0.5s-0.5-1-0.5-1.6V51.7
	c-1,0-2.1,0-3.1,0c-1,0-2.1,0-3.1,0c-1,0-2.1,0-3.1-0.5c-1.6-0.5-2.6-1-3.1-1.6c-1-0.5-1.6-1-2.1-2.1c-0.5-0.5-0.5-1.6-0.5-3.1V16.5
	c0-2.1,0.5-4.1,1-6.2c1-2.1,2.1-3.6,3.6-5.2c1.6-1.6,3.1-2.6,5.2-3.6c2.1-1,4.1-1,6.2-1.6h3.1V0.5z M186.8,5.2
	c-1.6,0.5-2.6,0.5-3.6,1.6c-1,0.5-2.1,1.6-3.1,2.6c-1,1-1.6,2.1-2.1,3.6c-0.5,1-0.5,2.6-0.5,4.1V45c0,0.5,0,1,0.5,1.6
	c0.5,0.5,1,0.5,1.6,0.5h7.2V5.2z"/>
<path class="st0" d="M71.8,123.1L39,100.2c-0.6-0.6-1.2-0.6-1.9,0L3.8,123.1c-1.2,1.2-0.6,3.1,1.2,3.1h29.1v49.5h7.4v-49.5h29.1
	C72.4,126.2,73.1,124.3,71.8,123.1z M36.6,109.5c0.6-0.6,1.2-0.6,1.9,0l13,9.3H23.6L36.6,109.5z"/>
<path class="st0" d="M7.5,137.9l-7.4,1.2l3.1,16.1v0.6v19.8h7.4v-15.5H18v15.5h7.4v-17.9c0-2.5-1.9-4.9-4.9-4.9h-5.6
	c-2.5,0-4.3-1.9-4.9-3.7L7.5,137.9z"/>
<path class="st0" d="M60.7,152.8h-5.6c-3.1,0-5.6,2.5-5.6,5.6v17.3H57v-15.5h7.4v15.5h7.4v-19.8c0-0.6,0-0.6,0-1.2l3.1-16.1
	l-7.4-1.2l-1.9,11.1C65,150.9,63.2,152.8,60.7,152.8z"/>
<path class="st0" d="M32.6-41.1c2.4,0,4.2-1.9,4.2-4.2c0-2.4-1.9-4.2-4.2-4.2s-4.2,1.9-4.2,4.2C28.3-43,30.2-41.1,32.6-41.1z
	 M10.4-27.4c-5.6,0-10.4,4.7-10.4,10.4S4.8-6.7,10.4-6.7s10.4-4.7,10.4-10.4S16.6-27.4,10.4-27.4z M10.4-9.6c-3.8,0-7.5-3.3-7.5-7.5
	s3.3-7.5,7.5-7.5c3.8,0,7.5,3.3,7.5,7.5C18-12.8,14.7-9.6,10.4-9.6z M22.7-30.7l5.2-5.2l1.9,1.9c2.4,2.8,6.1,4.2,10.4,4.2V-34
	c-3.3,0-5.6-0.9-7.5-2.8l-3.8-4.2c-1.4-0.9-2.4-1.4-3.8-1.4c-0.9,0-1.9,0.5-2.8,1.4L16.6-35c-0.9,0.5-1.4,1.9-1.4,2.8
	c0,1.4,0.5,2.4,1.4,2.8l6.6,6.1v10.4h4.2V-26L22.7-30.7z M40.1-27.4c-5.6,0-10.4,4.7-10.4,10.4S34.4-6.7,40.1-6.7
	s10.4-4.7,10.4-10.4S45.7-27.4,40.1-27.4z M40.1-9.6c-4.2,0-7.5-3.3-7.5-7.5s3.3-7.5,7.5-7.5c3.8,0,7.5,3.3,7.5,7.5
	C47.1-12.8,43.9-9.6,40.1-9.6z"/>
<path class="st0" d="M57-59.9c2.4,0,4.2-1.9,4.2-4.2s-1.9-4.2-4.2-4.2c-2.4,0-4.2,1.9-4.2,4.2S54.7-59.9,57-59.9z M47.1-49.6
	l5.2-5.2l1.9,1.9C57-50,60.3-48.6,65-48.6v-3.8c-3.3,0-5.6-1.4-7.5-3.3l-3.8-4.2c-0.9-0.9-1.9-1.4-3.3-1.4s-2.4,0.5-2.8,1.4L41-53.8
	c-0.9,0.9-1.4,1.9-1.4,2.8c0,1.4,0.5,2.4,1.4,2.8l6.6,6.1v10.4h4.2v-12.7L47.1-49.6z M64.6-46.3c-5.6,0-10.4,4.7-10.4,10.4
	s4.7,10.4,10.4,10.4c5.6,0,10.4-4.2,10.4-10.4S70.2-46.3,64.6-46.3z M64.6-28.4c-3.8,0-7.5-3.3-7.5-7.5s3.3-7.5,7.5-7.5
	c3.8,0,7.5,3.3,7.5,7.5C71.6-31.7,68.3-28.4,64.6-28.4z"/>
<path class="st0" d="M74.8,15.8V62c0,1.8-1.2,3-3,3H3c-1.8,0-3-1.2-3-3V15.8c0-1.8,1.2-3,3-3h69.3C73.6,12.8,74.8,14,74.8,15.8z
	 M70,17.5H4.8v42.7H70V17.5z M65.3,55.5H9V22.3h56.3V55.5z"/>
</svg>
